<svg width="16" height="16" viewBox="0 0 16 16" fill="none" xmlns="http://www.w3.org/2000/svg">
<g clip-path="url(#clip0_76_105)">
<path d="M6.66667 15.9112C2.88889 15.2445 0 11.9556 0 8.00006C0 3.60006 3.6 6.10352e-05 8 6.10352e-05C12.4 6.10352e-05 16 3.60006 16 8.00006C16 11.9556 13.1111 15.2445 9.33333 15.9112L8.88889 15.5556H7.11111L6.66667 15.9112Z" fill="url(#paint0_linear_76_105)"/>
<path d="M11.1112 10.2223L11.4667 8.00007H9.33341V6.44451C9.33341 5.82229 9.55564 5.3334 10.5334 5.3334H11.5556V3.28895C10.9779 3.20006 10.3556 3.11118 9.77786 3.11118C7.95564 3.11118 6.66675 4.22229 6.66675 6.22229V8.00007H4.66675V10.2223H6.66675V15.8667C7.11119 15.9556 7.55564 16.0001 8.00008 16.0001C8.44453 16.0001 8.88897 15.9556 9.33341 15.8667V10.2223H11.1112Z" fill="white"/>
</g>
<defs>
<linearGradient id="paint0_linear_76_105" x1="8" y1="15.4463" x2="8" y2="6.10352e-05" gradientUnits="userSpaceOnUse">
<stop stop-color="#0062E0"/>
<stop offset="1" stop-color="#19AFFF"/>
</linearGradient>
<clipPath id="clip0_76_105">
<rect width="16" height="16" fill="white"/>
</clipPath>
</defs>
</svg>
