<svg width="16" height="16" viewBox="0 0 16 16" fill="none" xmlns="http://www.w3.org/2000/svg">
<g clip-path="url(#clip0_80_132)">
<path d="M6.66667 15.9112C2.88889 15.2446 0 11.9557 0 8.00012C0 3.60012 3.6 0.00012207 8 0.00012207C12.4 0.00012207 16 3.60012 16 8.00012C16 11.9557 13.1111 15.2446 9.33333 15.9112L8.88889 15.5557H7.11111L6.66667 15.9112Z" fill="url(#paint0_linear_80_132)"/>
<path d="M11.1109 10.2223L11.4665 8.00013H9.33317V6.44457C9.33317 5.82235 9.55539 5.33346 10.5332 5.33346H11.5554V3.28901C10.9776 3.20013 10.3554 3.11124 9.77762 3.11124C7.95539 3.11124 6.6665 4.22235 6.6665 6.22235V8.00013H4.6665V10.2223H6.6665V15.8668C7.11095 15.9557 7.55539 16.0001 7.99984 16.0001C8.44428 16.0001 8.88873 15.9557 9.33317 15.8668V10.2223H11.1109Z" fill="white"/>
</g>
<defs>
<linearGradient id="paint0_linear_80_132" x1="8" y1="15.4463" x2="8" y2="0.00012207" gradientUnits="userSpaceOnUse">
<stop stop-color="#0062E0"/>
<stop offset="1" stop-color="#19AFFF"/>
</linearGradient>
<clipPath id="clip0_80_132">
<rect width="16" height="16" fill="white"/>
</clipPath>
</defs>
</svg>
